<svg width="35" height="35" viewBox="0 0 35 35" fill="none" xmlns="http://www.w3.org/2000/svg">
<g clip-path="url(#clip0_702_2)">
<path d="M26.7969 0H8.20312C3.67266 0 0 3.67266 0 8.20312V26.7969C0 31.3273 3.67266 35 8.20312 35H26.7969C31.3273 35 35 31.3273 35 26.7969V8.20312C35 3.67266 31.3273 0 26.7969 0Z" fill="#FFEDD5"/>
<path d="M9.12021 12.3977C11.5076 13.0051 14.5633 13.3089 18.2385 13.3089C21.9988 13.3089 24.9816 13.0051 27.3629 12.3977C29.9021 11.8084 31.1233 11.0126 31.1233 10.2594C31.1233 9.72481 30.5766 9.20227 29.5863 8.80127C29.8111 8.95317 29.9873 9.20227 29.9873 9.47557C29.9873 10.2411 28.833 10.8668 26.5246 11.3892C24.3802 11.8569 21.6525 12.1911 18.3236 12.1911C15.11 12.1911 12.2548 11.8569 10.1893 11.4196C7.97204 10.8728 6.81171 10.2836 6.81171 9.50606C6.81171 9.18409 6.95759 8.91065 7.40097 8.59483C6.01601 9.1294 5.26269 9.58495 5.26269 10.2654C5.34171 11.0369 6.58093 11.8084 9.12021 12.3977ZM14.46 9.94342C17.0478 9.71866 17.8012 8.05411 20.8325 7.78081C22.3208 7.66528 23.2685 7.96292 23.3658 8.48545C23.4568 8.97751 22.7157 9.30549 21.8166 9.37235C20.5774 9.49991 20.067 9.05653 19.9638 8.63133C19.0404 8.73456 18.8946 9.12325 18.9432 9.39053C19.0465 9.91307 20.1582 10.4415 22.0779 10.2592C24.2405 10.0892 24.9695 9.23864 24.7872 8.3821C24.5625 7.26442 22.8979 6.32885 19.9152 6.61432C16.0881 6.95462 16.1123 8.73456 13.5063 8.94715C12.4371 9.05038 11.8417 8.79526 11.7385 8.37608C11.6715 7.95088 12.1941 7.75032 12.8076 7.70178C13.3787 7.64108 14.0712 7.74417 14.3992 7.92655C14.6423 7.79899 14.7212 7.67143 14.697 7.52555C14.5814 7.13071 13.7918 6.95461 12.8075 7.02749C10.8698 7.19756 10.8698 8.06628 10.9367 8.44895C11.1188 9.45137 12.6132 10.1136 14.46 9.94342ZM27.4662 14.3112C25.0727 14.8701 22.0232 15.2346 18.3418 15.2346C14.5876 15.2346 11.5258 14.8457 9.14454 14.3233C7.00626 13.7766 5.86411 13.1692 5.46312 12.5494C5.6697 13.9467 6.02202 15.3014 6.47757 16.5892C5.93097 16.9295 5.43892 17.3547 4.9954 17.9257C4.18147 18.916 3.76756 20.1751 3.83507 21.4551C3.87741 22.0392 4.04403 22.6074 4.32377 23.1218C4.6035 23.6362 4.9899 24.0849 5.4571 24.4379C6.44736 25.2094 7.5165 25.4402 8.73753 25.2094C9.20525 25.1304 9.72765 24.8935 10.2077 24.7356C9.20525 24.7356 8.36087 24.4136 7.52251 23.7455C6.59911 23.1075 5.98566 22.1052 5.8216 20.9934C5.59683 19.9243 5.82159 18.928 6.42904 18.0533C6.56876 17.8832 6.71451 17.7313 6.87255 17.5976C7.21271 18.43 7.5772 19.25 7.99023 20.0093C8.91363 21.4126 9.83702 22.6276 10.7604 23.9519C11.1614 24.7234 11.4165 25.4889 11.5988 26.2542C12.2152 27.1072 13.1155 27.7125 14.1381 27.9613C15.4501 28.417 16.8171 28.6234 18.2142 28.5446H18.3601C19.7854 28.6046 21.2098 28.4049 22.5638 27.9553C23.5433 27.6632 24.4049 27.0675 25.0242 26.2542H25.103C25.2489 25.4949 25.498 24.7296 25.8625 23.9519C26.7736 22.6215 27.7092 21.4126 28.6204 20.0093C29.8785 17.6856 30.7408 15.1686 31.1718 12.5616C30.6736 13.2481 29.5256 13.8435 27.4662 14.3112Z" fill="#995000"/>
</g>
<defs>
<clipPath id="clip0_702_2">
<rect width="35" height="35" fill="white"/>
</clipPath>
</defs>
</svg>
